<?xml version="1.0" encoding="UTF-8" standalone="no"?>
<!-- Created with Inkscape (http://www.inkscape.org/) -->

<svg
   width="512"
   height="512"
   viewBox="0 0 512 512"
   version="1.1"
   id="svg1"
   inkscape:version="1.3.1 (91b66b0783, 2023-11-16, custom)"
   sodipodi:docname="reactive.svg"
   xmlns:inkscape="http://www.inkscape.org/namespaces/inkscape"
   xmlns:sodipodi="http://sodipodi.sourceforge.net/DTD/sodipodi-0.dtd"
   xmlns="http://www.w3.org/2000/svg"
   xmlns:svg="http://www.w3.org/2000/svg">
  <sodipodi:namedview
     id="namedview1"
     pagecolor="#ffffff"
     bordercolor="#000000"
     borderopacity="0.25"
     inkscape:showpageshadow="2"
     inkscape:pageopacity="0.0"
     inkscape:pagecheckerboard="0"
     inkscape:deskcolor="#d1d1d1"
     inkscape:document-units="px"
     inkscape:zoom="2.1484375"
     inkscape:cx="255.76727"
     inkscape:cy="256"
     inkscape:window-width="2560"
     inkscape:window-height="1354"
     inkscape:window-x="0"
     inkscape:window-y="0"
     inkscape:window-maximized="1"
     inkscape:current-layer="layer1" />
  <defs
     id="defs1" />
  <g
     inkscape:label="图层 1"
     inkscape:groupmode="layer"
     id="layer1">
    <path
       style="fill:#080808;stroke:none;stroke-width:1.73103"
       d="m 163.76518,59.146807 c -18.21539,2.46491 -33.24253,13.331484 -39.18604,31.158644 -2.05175,6.154091 -0.74802,14.685809 -4.13795,20.116569 -8.51173,13.63603 -23.906315,18.42028 -30.301131,35.27657 -8.149953,21.48275 6.388936,35.93506 5.860948,55.39314 -0.17637,6.49973 -5.417916,12.76163 -7.079088,19.04139 -3.616784,13.67243 -1.765075,30.88268 4.994116,43.27589 5.69997,10.45109 17.700425,15.87472 23.064425,26.03369 6.45255,12.22056 4.55515,24.913 15.94663,35.47418 9.29924,8.62147 20.41469,8.99972 30.65773,14.94223 15.06838,8.74181 19.09593,24.66049 38.26315,29.31671 12.98282,3.15383 23.75471,-1.72269 36.35174,-1.24887 36.47293,1.37197 71.14552,-2.26919 103.86214,-20.23678 94.07393,-51.66442 119.84409,-176.42188 57.56496,-262.577831 -40.41674,-55.911892 -101.17552,-72.63487 -166.6202,-70.269856 -31.59295,1.141697 -65.6925,3.911099 -69.24143,44.304324 m 24.2345,275.234663 c 37.93249,-21.14343 41.54982,-79.20935 -5.19311,-93.82853 -8.23663,-2.57606 -32.41544,-0.56921 -21.21051,13.65731 6.13738,7.7924 20.01847,5.68529 27.56433,13.23117 18.15653,18.15653 5.19792,49.79704 -20.20209,50.56463 -29.62205,0.89521 -22.50321,-23.77057 -31.46855,-40.67395 -8.7545,-16.50591 -46.462252,-31.81972 -25.5007,-58.35304 5.42898,-6.87205 23.12458,2.6396 31.0037,2.79159 24.57117,0.47403 67.58372,-29.65596 55.8379,-58.6842 -2.82835,-6.98993 -10.03228,-8.791 -15.27342,-3.11748 -7.33332,7.93835 -4.93662,20.36471 -13.05491,28.93071 -18.45186,19.46944 -57.12182,14.20587 -61.76031,-15.50452 -2.43604,-15.60342 2.98529,-31.37534 16.9417,-39.79913 6.17846,-3.72921 15.32381,-3.58057 19.16033,-10.58923 3.23896,-5.9171 -1.61019,-12.6685 -1.68298,-18.85307 -0.17085,-14.516224 13.47138,-25.39415 27.52826,-23.883199 26.06723,2.80194 16.42303,24.891889 19.94694,41.117429 1.40781,6.48204 8.45539,9.88849 13.99258,5.68864 15.42864,-11.7024 6.31715,-40.469408 -3.67846,-52.18888 -7.62429,-8.939171 -20.95652,-12.281853 -12.55534,-26.057659 11.50587,-18.866747 41.59382,-18.335249 53.27609,-0.04276 11.80118,18.478701 5.18375,53.239649 5.18375,74.407819 v 136.75181 c 0,20.62287 3.8648,45.68988 -0.92162,65.77934 -6.65752,27.94308 -43.39195,31.75443 -57.93358,8.65519 m 70.97245,13.84828 c 2.99319,-7.29773 5.07991,-17.47548 9.91475,-23.6655 11.29055,-14.45521 39.70852,-25.39918 55.86462,-33.9115 9.93016,-5.23199 21.12403,-1.63996 28.53139,-11.74055 8.45422,-11.52801 -4.57557,-29.01624 -18.11846,-24.07289 -8.12829,2.96692 -10.82388,11.95882 -17.51875,16.80278 -14.81968,10.72263 -33.15895,21.06223 -50.01836,28.11867 0,-10.91089 -3.55199,-29.18512 1.04449,-39.15797 3.23016,-7.00846 15.1128,-11.1418 21.45897,-14.76457 18.93716,-10.81048 38.44321,-26.01647 58.85521,-33.66307 7.86066,-2.94473 15.47313,0.33938 22.10811,-6.28567 10.16788,-10.15273 1.83446,-30.72493 -13.45293,-27.85954 -8.59743,1.61145 -11.95422,9.85329 -17.75917,15.22269 -8.52887,7.88892 -20.66687,13.00162 -30.70983,18.71147 -13.85194,7.87546 -27.48394,16.2647 -41.54485,23.74835 0,-12.23548 -4.52036,-35.67573 1.7791,-46.36935 4.32463,-7.34126 17.00395,-12.08428 24.18643,-16.20706 19.89817,-11.42172 39.66876,-25.39139 60.58625,-34.79837 8.70245,-3.91362 17.93407,-0.10065 24.83556,-8.58841 8.90848,-10.95616 -2.05302,-29.71788 -16.17372,-25.77187 -8.77864,2.45319 -11.3117,10.74825 -17.68565,16.12167 -9.80754,8.26798 -23.146,13.77231 -34.25208,20.14731 -14.32004,8.21984 -28.30769,17.50513 -43.27589,24.49361 0,-10.90947 -4.56039,-35.30446 2.77552,-43.95176 11.25062,-13.26187 33.75831,-7.78484 42.72026,-20.28489 7.88983,-11.004593 -2.35635,-28.235716 -16.06686,-24.994507 -11.38334,2.69105 -17.9857,16.920541 -29.42892,21.72077 0,-22.901199 0.48932,-41.560377 -10.38621,-62.317277 22.86633,0 43.00894,4.048183 64.04831,13.120332 18.13846,7.821304 34.64263,19.538597 48.44363,33.618944 94.2471,96.154828 24.0494,265.462018 -110.76092,266.578158 M 18.358181,427.85739 v 62.31728 h 10.386214 v -20.77242 c 19.884249,0.0701 19.671608,20.55308 38.082782,20.77242 -1.796486,-6.22407 -8.351191,-14.33006 -7.423702,-20.77242 1.719144,-11.94123 13.521566,-21.04988 3.945602,-34.03169 -8.831883,-11.97304 -32.072507,-7.51317 -44.990896,-7.51317 m 65.779356,0 v 62.31728 H 130.8755 V 479.78846 H 94.523748 V 464.20914 H 122.22033 V 453.82292 H 94.523748 C 94.771279,432.87765 115.02114,438.2436 130.8755,438.2436 V 427.85739 H 84.137537 m 62.317293,62.31728 32.88835,-12.10921 27.69789,12.10921 c -6.00733,-15.57265 -11.7996,-31.24147 -18.00223,-46.73795 -2.25613,-5.63666 -4.25342,-14.64006 -11.57499,-15.22137 -7.95859,-0.63191 -10.27914,7.47745 -12.51925,13.49032 -6.03048,16.18698 -12.95497,32.10837 -18.48977,48.469 m 90.01516,-61.35161 c -20.16517,5.31631 -23.79282,39.82217 -11.15289,54.03877 6.81278,7.66267 17.31623,7.41817 26.73089,7.30618 5.66299,-0.0674 12.18346,-0.20909 17.02055,-3.60905 4.25506,-2.99079 4.53927,-8.98215 -1.55073,-9.82253 -15.3865,-2.12333 -37.23871,11.07254 -37.94523,-15.98937 -0.0884,-3.38989 -0.19175,-7.0833 0.72262,-10.37954 5.93027,-21.37756 25.71735,-3.92495 36.68033,-11.79132 5.33599,-3.82884 -0.66568,-8.54709 -4.57604,-9.72773 -7.27977,-2.19795 -18.60958,-1.95517 -25.9295,-0.0254 m 51.92975,-0.96565 v 10.38621 h 19.04139 v 51.93107 c 19.79512,-0.64998 12.11725,-37.11779 12.11725,-51.93107 h 19.04139 v -10.38625 h -50.20003 m 65.77936,0 v 62.31727 h 10.3862 v -62.31727 h -10.3862 m 27.69656,0 c 4.45247,19.2369 14.0953,62.23846 36.35175,62.31727 l 22.50346,-62.31727 c -19.22935,0.62964 -22.80843,31.87566 -29.4276,46.73796 -6.89904,-14.75211 -10.24379,-46.1098 -29.42761,-46.73796 m 76.16558,0 v 62.31727 h 45.00692 v -10.3862 h -34.62072 v -15.57932 h 25.96553 V 453.8229 h -25.96553 v -15.57931 h 34.62072 V 427.85734 H 458.04124 M 28.744395,459.01603 V 438.2436 c 6.756475,0 15.95698,-1.5605 22.247009,1.28492 6.320651,2.85925 7.390293,13.33907 1.437193,17.20618 -6.217102,4.03857 -16.622875,2.28133 -23.684202,2.28133 m 148.869075,-15.57931 8.65517,24.2345 h -19.04139 z"
       id="path9" />
  </g>
</svg>
