<?xml version="1.0" encoding="UTF-8" standalone="no"?>
<!-- Created with Inkscape (http://www.inkscape.org/) -->

<svg
   width="2048"
   height="512"
   viewBox="0 0 2048 512"
   version="1.1"
   id="svg1"
   inkscape:version="1.3.1 (91b66b0783, 2023-11-16, custom)"
   sodipodi:docname="hlogo.svg"
   xmlns:inkscape="http://www.inkscape.org/namespaces/inkscape"
   xmlns:sodipodi="http://sodipodi.sourceforge.net/DTD/sodipodi-0.dtd"
   xmlns="http://www.w3.org/2000/svg"
   xmlns:svg="http://www.w3.org/2000/svg">
  <sodipodi:namedview
     id="namedview1"
     pagecolor="#ffffff"
     bordercolor="#000000"
     borderopacity="0.25"
     inkscape:showpageshadow="2"
     inkscape:pageopacity="0.0"
     inkscape:pagecheckerboard="0"
     inkscape:deskcolor="#d1d1d1"
     inkscape:document-units="px"
     inkscape:zoom="1.0510087"
     inkscape:cx="939.57357"
     inkscape:cy="347.76116"
     inkscape:window-width="2560"
     inkscape:window-height="1356"
     inkscape:window-x="0"
     inkscape:window-y="0"
     inkscape:window-maximized="1"
     inkscape:current-layer="layer1" />
  <defs
     id="defs1" />
  <g
     inkscape:label="图层 1"
     inkscape:groupmode="layer"
     id="layer1"
     transform="translate(-12.959811,-3.60909)">
    <path
       style="fill:#000000;fill-opacity:1;stroke:none;stroke-width:2.44945"
       d="m 121.43272,66.605174 c -25.775165,3.487899 -47.038887,18.864332 -55.449079,44.090136 -2.903269,8.70817 -1.058464,20.78074 -5.855287,28.46538 -12.044278,19.29527 -33.827941,26.06509 -42.876741,49.91709 -11.5323565,30.39855 9.04048,50.84887 8.293365,78.38247 -0.249567,9.19725 -7.666465,18.05797 -10.017059,26.94397 -5.117826,19.34678 -2.497618,43.69965 7.066779,61.2363 8.065579,14.78851 25.046476,22.46306 32.63665,36.83822 9.130495,17.29235 6.445633,35.25243 22.564819,50.19672 13.158622,12.19956 28.887213,12.73479 43.381343,21.14357 21.32208,12.36985 27.02115,34.89512 54.14316,41.48377 18.37097,4.46273 33.61342,-2.43765 51.43849,-1.76718 51.60997,1.94136 100.67241,-3.21095 146.96712,-28.63547 C 506.84289,401.7939 543.30821,225.25945 455.18192,103.34695 397.99138,24.230441 312.01641,0.56707262 219.41081,3.9136175 174.70612,5.5291436 126.45453,9.447906 121.43272,66.605174 m 34.29233,389.462876 c 53.67527,-29.9184 58.79387,-112.08291 -7.34836,-132.76936 -11.655,-3.64517 -45.86853,-0.80544 -30.01332,19.32539 8.68452,11.02642 28.32655,8.04481 39.00411,18.72239 25.69187,25.69187 7.35516,70.46386 -28.58639,71.55002 -41.915826,1.26674 -31.84252,-33.63586 -44.528662,-57.55451 -12.387804,-23.35621 -65.74507,-45.02557 -36.084031,-82.57078 7.682122,-9.72409 32.72177,3.73509 43.870891,3.95016 34.768722,0.67076 95.632392,-41.96381 79.011822,-83.03939 -4.00218,-9.8909 -14.19589,-12.43944 -21.61222,-4.4113 -10.3768,11.23294 -6.98542,28.8165 -18.47297,40.93757 -26.10978,27.54967 -80.828591,20.10161 -87.392153,-21.93922 -3.447048,-22.07917 4.224249,-44.39677 23.972863,-56.31662 8.742652,-5.2769 21.683515,-5.06658 27.112276,-14.98398 4.583194,-8.37282 -2.278452,-17.92619 -2.381455,-26.67749 -0.241761,-20.54077 19.062289,-35.933272 38.953069,-33.795239 36.88569,3.964809 23.23894,35.222559 28.22535,58.182039 1.99208,9.17222 11.96455,13.99243 19.79979,8.04955 21.83186,-16.55914 8.93891,-57.26508 -5.20509,-73.848382 -10.78854,-12.649116 -29.65393,-17.379081 -17.76608,-36.872138 16.28105,-26.696846 58.85614,-25.944766 75.38679,-0.0605 16.69893,26.147753 7.33513,75.33523 7.33513,105.28864 v 193.5067 c 0,29.18181 5.46876,64.65216 -1.30411,93.07916 -9.42054,39.54005 -61.40053,44.93319 -81.97725,12.24728 m 100.42752,19.59561 c 4.23543,-10.32644 7.18818,-24.72817 14.02958,-33.48719 15.97637,-20.45441 56.1884,-35.94037 79.04962,-47.98548 14.05138,-7.40337 29.89095,-2.32058 40.37252,-16.61312 11.9629,-16.31238 -6.47453,-41.0586 -25.63801,-34.06365 -11.5017,4.19826 -15.31602,16.92198 -24.7894,23.77629 -20.97016,15.17274 -46.92061,29.80349 -70.77703,39.78851 0,-15.43913 -5.02615,-41.29756 1.47797,-55.40935 4.57075,-9.91712 21.38494,-15.7659 30.3649,-20.89218 26.79648,-15.29706 54.39795,-36.81386 83.28137,-47.63396 11.123,-4.16686 21.8948,0.48022 31.28344,-8.89436 14.38776,-14.36632 2.59579,-43.47642 -19.03618,-39.42183 -12.16555,2.28023 -16.91547,13.94261 -25.1296,21.54043 -12.06854,11.16298 -29.24406,18.39756 -43.45507,26.47712 -19.60079,11.14394 -38.89035,23.0149 -58.78683,33.60441 0,-17.31346 -6.39641,-50.4819 2.51746,-65.6136 6.11944,-10.38804 24.06095,-17.09952 34.22431,-22.93334 28.15633,-16.16198 56.13214,-35.92935 85.73082,-49.24042 12.31415,-5.53786 25.3771,-0.14243 35.14284,-12.15279 12.60569,-15.5032 -2.90506,-42.05143 -22.88615,-36.46774 -12.42195,3.47132 -16.00629,15.209 -25.02557,22.8125 -13.87787,11.69937 -32.75208,19.48811 -48.46742,28.50888 -20.26315,11.63124 -40.05597,24.77012 -61.23629,34.65897 0,-15.43713 -6.45305,-49.95656 3.92742,-62.19267 15.91986,-18.76582 47.76872,-11.01571 60.45007,-28.70355 11.16428,-15.57173 -3.33429,-39.954145 -22.73495,-35.367766 -16.10767,3.807894 -25.45015,23.942926 -41.64254,30.735356 0,-32.405687 0.69239,-58.808819 -14.69672,-88.180272 32.35635,0 60.85857,5.728264 90.62973,18.565547 25.6663,11.067311 49.02005,27.647529 68.54875,47.571523 C 546.24325,234.51104 446.91202,474.0843 256.15257,475.66366"
       id="path9" />
    <text
       xml:space="preserve"
       style="font-size:382.064px;fill:#000000;fill-opacity:1;stroke-width:31.8387"
       x="544.92212"
       y="395.58408"
       id="text1"><tspan
         sodipodi:role="line"
         id="tspan1"
         x="544.92212"
         y="395.58408"
         style="stroke-width:31.8387">Reactive</tspan></text>
  </g>
</svg>
